<svg xmlns="http://www.w3.org/2000/svg" viewBox="0 0 720 520"><defs><linearGradient id="g" x1="0" x2="1"><stop stop-color="#bcead5"/><stop offset="1" stop-color="#bde7ed"/></linearGradient></defs><rect width="720" height="520" rx="42" fill="url(#g)"/><g transform="translate(80 50)"><path d="M270 340 C220 260 225 150 295 85 C350 35 440 28 500 80 C565 136 572 235 520 305 C475 365 360 410 270 340Z" fill="#fff7f8" opacity=".9"/><path d="M315 410 C335 330 340 225 330 135" stroke="#2f7168" stroke-width="18" fill="none" stroke-linecap="round"/><path d="M330 220 C260 205 225 160 225 118 C275 115 330 145 345 200" fill="#69bca5"/><path d="M340 260 C425 240 475 190 475 135 C410 130 350 160 325 225" fill="#7bc8d6"/><circle cx="330" cy="118" r="48" fill="#f6bfd0"/><circle cx="285" cy="120" r="42" fill="#fff"/><circle cx="365" cy="120" r="42" fill="#fff"/><circle cx="330" cy="80" r="42" fill="#f8dfe7"/><circle cx="330" cy="132" r="26" fill="#f1a9bd"/><rect x="220" y="365" width="210" height="70" rx="30" fill="#173b3f"/><text x="250" y="410" fill="#dff6e8" font-size="28" font-family="Verdana">blossom</text></g></svg>
