<svg xmlns="http://www.w3.org/2000/svg" viewBox="0 0 520 390"><rect width="520" height="390" rx="34" fill="#dff6e8"/><circle cx="260" cy="180" r="110" fill="#fff" opacity=".42"/><g transform="translate(150 58)"><path d="M110 255 C130 188 125 126 118 70" stroke="#2f7168" stroke-width="13" fill="none" stroke-linecap="round"/><path d="M118 150 C70 135 45 105 43 73 C86 72 122 92 135 132" fill="#69bca5"/><path d="M124 172 C180 158 214 122 215 84 C172 80 129 101 112 145" fill="#7bc8d6"/><circle cx="116" cy="65" r="38" fill="#f5b7c8"/><circle cx="82" cy="67" r="31" fill="#fff" opacity=".88"/><circle cx="150" cy="67" r="31" fill="#fff" opacity=".88"/><circle cx="116" cy="36" r="31" fill="#f5b7c8" opacity=".82"/><circle cx="116" cy="76" r="18" fill="#eaa1b8"/></g><rect x="94" y="305" width="332" height="46" rx="23" fill="#173b3f" opacity=".92"/><text x="260" y="336" text-anchor="middle" font-size="24" fill="#e8fff9" font-family="Verdana">Tulip Sweet</text></svg>
