<svg xmlns="http://www.w3.org/2000/svg" viewBox="0 0 320 320"><rect width="320" height="320" rx="28" fill="#fff"/><rect x="24" y="24" width="78" height="78" fill="#173b3f"/><rect x="43" y="43" width="40" height="40" fill="#fff"/><rect x="218" y="24" width="78" height="78" fill="#173b3f"/><rect x="237" y="43" width="40" height="40" fill="#fff"/><rect x="24" y="218" width="78" height="78" fill="#173b3f"/><rect x="43" y="237" width="40" height="40" fill="#fff"/><g fill="#173b3f"><rect x="128" y="30" width="24" height="24"/><rect x="166" y="30" width="16" height="44"/><rect x="123" y="88" width="58" height="18"/><rect x="202" y="123" width="55" height="22"/><rect x="130" y="132" width="24" height="64"/><rect x="166" y="126" width="20" height="20"/><rect x="190" y="166" width="26" height="26"/><rect x="230" y="178" width="38" height="20"/><rect x="124" y="228" width="28" height="60"/><rect x="166" y="220" width="58" height="24"/><rect x="242" y="232" width="22" height="56"/><rect x="188" y="270" width="34" height="18"/></g><text x="96" y="162" font-size="30" font-family="Verdana" fill="#2f7168" font-weight="700">QRIS</text></svg>
